<svg width="1584" height="396" viewBox="0 0 1584 396" fill="none" xmlns="http://www.w3.org/2000/svg">
<path d="M1584 0H0V396H1584V0Z" fill="#141419"/>
<g clip-path="url(#clip0_616_3)">
<path d="M598.748 226.15C598.748 225.1 598.043 224.4 596.985 224.4H566.305C565.247 224.4 564.542 225.1 564.542 226.15C564.542 227.2 565.247 227.9 566.305 227.9H596.985C598.043 227.9 598.748 227.025 598.748 226.15Z" fill="#8257E6"/>
<path d="M573.357 233.15H569.831C568.773 233.15 568.068 233.85 568.068 234.9C568.068 235.95 568.773 236.65 569.831 236.65H573.357C574.415 236.65 575.121 235.95 575.121 234.9C575.121 233.85 574.415 233.15 573.357 233.15Z" fill="#8257E6"/>
<path d="M581.644 217.4C581.644 216.35 580.939 215.65 579.881 215.65H562.778C561.72 215.65 561.015 216.35 561.015 217.4C561.015 218.45 561.72 219.15 562.778 219.15H579.881C580.939 219.15 581.644 218.275 581.644 217.4Z" fill="#8257E6"/>
<path d="M669.275 220.375C668.746 219.325 667.688 218.45 666.631 217.925L653.23 212.85L647.764 210.925C646.178 210.225 644.767 209.175 643.885 207.775L639.301 200.25C640.183 200.075 640.712 199.375 640.712 198.5C640.712 197.45 640.006 196.75 638.948 196.75H637.185L635.069 193.25C635.951 193.075 636.48 192.375 636.48 191.5C636.48 190.45 635.775 189.75 634.717 189.75H632.954L631.19 186.95C631.896 186.775 632.425 186.075 632.425 185.375C632.425 184.325 631.719 183.625 630.661 183.625H629.075L626.782 179.95C626.782 179.95 626.782 179.775 626.606 179.775C624.49 177.325 621.669 176.1 618.672 176.45C616.027 176.8 613.911 178.375 613.029 180.3C612.853 180.825 612.853 181.35 613.206 181.875L627.84 206.725C628.017 207.075 628.369 207.425 628.722 207.425L646.706 214.25H646.883L652.172 216.175L665.396 221.25C665.749 221.425 666.102 221.6 666.278 222.125C666.983 223.525 666.983 224.925 666.102 226.325H637.362C635.598 226.325 633.835 225.8 632.425 224.75L583.232 188.525C583.232 188.525 583.937 188.175 584.818 186.95C585.7 185.725 586.053 184.15 586.053 182.575L584.466 167.875L586.582 164.55C587.111 163.85 588.168 163.675 588.874 164.2C589.403 164.725 591.519 166.475 596.632 174.7C599.277 178.55 603.508 181.35 608.269 182.05C609.15 182.225 610.208 181.525 610.385 180.65C610.561 179.775 609.856 178.725 608.974 178.55C605.271 177.85 601.745 175.75 599.629 172.6C593.458 163.15 591.695 161.75 590.99 161.225C588.697 159.65 585.524 160.175 583.761 162.45L573.005 179.425C572.3 180.475 572.123 181.7 572.3 182.925C571.242 183.275 570.184 183.8 569.655 184.85L566.834 189.225C565.247 191.5 565.952 194.65 568.244 196.225C569.831 197.45 573.181 199.55 578.118 202.7C578.471 202.875 578.824 203.05 579 203.05C579.529 203.05 580.058 202.7 580.41 202.175C580.939 201.3 580.763 200.25 579.881 199.725C575.121 196.575 571.771 194.475 570.184 193.25C569.479 192.725 569.302 191.85 569.831 190.975L572.476 186.95C573.005 186.25 574.063 186.075 574.768 186.6L630.132 227.55C632.248 229.125 634.717 229.825 637.185 229.825H661.517C657.815 231.575 652.701 233.15 648.293 233.15H642.122H637.009C634.011 233.15 631.014 232.275 628.546 230.7C618.319 224.225 599.277 212.15 585.347 203.225C584.466 202.7 583.408 202.875 582.879 203.75C582.35 204.625 582.526 205.675 583.408 206.2C596.984 214.95 615.498 226.675 625.901 233.325H580.41C579.353 233.325 578.647 234.025 578.647 235.075C578.647 236.125 579.353 236.825 580.41 236.825H637.009H642.122H648.117C655.346 236.825 665.749 232.975 668.394 229.3C670.686 226.15 670.862 223.175 669.275 220.375ZM630.309 204.625L616.556 181.35C617.085 180.825 617.966 180.3 619.024 180.125C620.082 179.95 622.022 180.125 623.785 182.05L624.843 183.8H623.256C622.198 183.8 621.493 184.5 621.493 185.55C621.493 186.6 622.198 187.3 623.256 187.3H626.959L628.722 190.1H627.311C626.253 190.1 625.548 190.8 625.548 191.85C625.548 192.9 626.253 193.6 627.311 193.6H630.838L632.954 196.925H631.543C630.485 196.925 629.78 197.625 629.78 198.675C629.78 199.725 630.485 200.425 631.543 200.425H635.069L640.006 208.125L630.309 204.625ZM576.002 181.35L581.468 172.775L582.526 182.925C582.526 183.625 582.35 184.325 581.997 184.85C581.645 185.375 580.939 186.775 579.353 185.55C579.353 185.55 578.471 185.025 576.884 183.8C575.826 182.925 575.65 182.05 576.002 181.35Z" fill="#8257E6"/>
<path d="M98.1412 218.757H92.1882V234.861H81.1909V189.243H99.1438C104.554 189.243 108.783 190.444 111.833 192.846C114.883 195.248 116.407 198.642 116.407 203.028C116.407 206.203 115.765 208.835 114.481 210.924C113.196 213.013 111.186 214.705 108.449 216L117.974 234.391V234.861H106.193L98.1412 218.757ZM92.1882 210.266H99.1438C101.233 210.266 102.804 209.718 103.859 208.621C104.914 207.525 105.441 205.995 105.441 204.031C105.441 202.068 104.909 200.527 103.844 199.41C102.778 198.292 101.212 197.733 99.1438 197.733H92.1882V210.266ZM161.681 212.992C161.681 217.441 160.856 221.378 159.206 224.804C157.556 228.229 155.211 230.866 152.172 232.715C149.133 234.564 145.671 235.488 141.786 235.488C137.901 235.488 134.454 234.595 131.446 232.809C128.439 231.023 126.094 228.47 124.413 225.148C122.731 221.827 121.849 218.015 121.765 213.712V211.143C121.765 206.673 122.585 202.731 124.225 199.316C125.864 195.901 128.214 193.264 131.274 191.405C134.334 189.546 137.817 188.616 141.723 188.616C145.587 188.616 149.034 189.535 152.062 191.373C155.091 193.211 157.446 195.827 159.128 199.222C160.809 202.616 161.66 206.506 161.681 210.893V212.992ZM150.496 211.081C150.496 206.548 149.739 203.107 148.224 200.757C146.71 198.407 144.543 197.232 141.723 197.232C136.209 197.232 133.295 201.368 132.982 209.639L132.95 212.992C132.95 217.462 133.692 220.898 135.175 223.3C136.658 225.702 138.862 226.903 141.786 226.903C144.564 226.903 146.705 225.723 148.209 223.363C149.713 221.002 150.475 217.608 150.496 213.18V211.081ZM204.261 219.415C204.114 222.59 203.258 225.394 201.691 227.827C200.125 230.261 197.926 232.146 195.096 233.483C192.266 234.819 189.034 235.488 185.399 235.488C179.404 235.488 174.684 233.535 171.237 229.629C167.791 225.723 166.068 220.209 166.068 213.086V210.83C166.068 206.36 166.846 202.449 168.402 199.096C169.958 195.744 172.198 193.154 175.122 191.326C178.047 189.499 181.43 188.585 185.274 188.585C190.809 188.585 195.258 190.042 198.621 192.955C201.984 195.869 203.895 199.885 204.355 205.002H193.389C193.305 202.224 192.605 200.23 191.289 199.018C189.973 197.807 187.968 197.201 185.274 197.201C182.537 197.201 180.532 198.224 179.258 200.271C177.984 202.318 177.316 205.587 177.253 210.078V213.305C177.253 218.172 177.864 221.65 179.086 223.739C180.308 225.827 182.412 226.872 185.399 226.872C187.926 226.872 189.859 226.276 191.195 225.086C192.532 223.895 193.242 222.005 193.326 219.415H204.261ZM224.971 217.88L220.459 222.83V234.861H209.462V189.243H220.459V209.357L224.281 203.561L234.119 189.243H247.717L232.302 209.42L247.717 234.861H234.683L224.971 217.88ZM278.798 215.53H261.503V226.402H281.931V234.861H250.506V189.243H281.994V197.733H261.503V207.352H278.798V215.53ZM322.85 197.733H309.158V234.861H298.161V197.733H284.72V189.243H322.85V197.733ZM350.515 222.736C350.515 221.128 349.946 219.874 348.808 218.976C347.67 218.078 345.67 217.148 342.808 216.188C339.946 215.227 337.607 214.297 335.79 213.399C329.878 210.496 326.923 206.506 326.923 201.431C326.923 198.903 327.659 196.673 329.132 194.741C330.604 192.809 332.688 191.305 335.382 190.23C338.077 189.154 341.106 188.616 344.468 188.616C347.748 188.616 350.688 189.201 353.288 190.371C355.889 191.54 357.91 193.206 359.351 195.368C360.792 197.53 361.513 200 361.513 202.778H350.547C350.547 200.919 349.978 199.478 348.839 198.454C347.701 197.431 346.16 196.919 344.218 196.919C342.254 196.919 340.704 197.352 339.565 198.219C338.427 199.086 337.858 200.188 337.858 201.525C337.858 202.694 338.484 203.754 339.737 204.705C340.991 205.655 343.194 206.637 346.348 207.65C349.502 208.663 352.092 209.754 354.119 210.924C359.048 213.765 361.513 217.681 361.513 222.673C361.513 226.663 360.009 229.796 357.001 232.073C353.993 234.349 349.868 235.488 344.625 235.488C340.928 235.488 337.581 234.825 334.583 233.498C331.586 232.172 329.33 230.355 327.816 228.047C326.302 225.738 325.544 223.081 325.544 220.073H336.573C336.573 222.517 337.205 224.318 338.469 225.477C339.732 226.637 341.784 227.216 344.625 227.216C346.442 227.216 347.878 226.825 348.933 226.041C349.988 225.258 350.515 224.156 350.515 222.736ZM405.283 234.861H394.348V215.812H378.15V234.861H367.152V189.243H378.15V207.352H394.348V189.243H405.283V234.861ZM450.87 212.992C450.87 217.441 450.045 221.378 448.395 224.804C446.745 228.229 444.4 230.866 441.361 232.715C438.322 234.564 434.86 235.488 430.974 235.488C427.089 235.488 423.643 234.595 420.635 232.809C417.627 231.023 415.283 228.47 413.601 225.148C411.92 221.827 411.037 218.015 410.954 213.712V211.143C410.954 206.673 411.774 202.731 413.413 199.316C415.053 195.901 417.403 193.264 420.463 191.405C423.523 189.546 427.006 188.616 430.912 188.616C434.776 188.616 438.222 189.535 441.251 191.373C444.28 193.211 446.635 195.827 448.316 199.222C449.998 202.616 450.849 206.506 450.87 210.893V212.992ZM439.685 211.081C439.685 206.548 438.927 203.107 437.413 200.757C435.899 198.407 433.732 197.232 430.912 197.232C425.397 197.232 422.484 201.368 422.17 209.639L422.139 212.992C422.139 217.462 422.88 220.898 424.364 223.3C425.847 225.702 428.05 226.903 430.974 226.903C433.752 226.903 435.893 225.723 437.397 223.363C438.901 221.002 439.664 217.608 439.685 213.18V211.081ZM484.833 215.53H467.538V226.402H487.966V234.861H456.541V189.243H488.029V197.733H467.538V207.352H484.833V215.53ZM515.976 222.736C515.976 221.128 515.407 219.874 514.269 218.976C513.131 218.078 511.131 217.148 508.269 216.188C505.407 215.227 503.068 214.297 501.251 213.399C495.34 210.496 492.384 206.506 492.384 201.431C492.384 198.903 493.12 196.673 494.593 194.741C496.065 192.809 498.149 191.305 500.843 190.23C503.538 189.154 506.567 188.616 509.93 188.616C513.209 188.616 516.149 189.201 518.749 190.371C521.35 191.54 523.371 193.206 524.812 195.368C526.253 197.53 526.974 200 526.974 202.778H516.008C516.008 200.919 515.439 199.478 514.3 198.454C513.162 197.431 511.621 196.919 509.679 196.919C507.715 196.919 506.165 197.352 505.026 198.219C503.888 199.086 503.319 200.188 503.319 201.525C503.319 202.694 503.945 203.754 505.198 204.705C506.452 205.655 508.655 206.637 511.809 207.65C514.963 208.663 517.553 209.754 519.58 210.924C524.509 213.765 526.974 217.681 526.974 222.673C526.974 226.663 525.47 229.796 522.462 232.073C519.454 234.349 515.329 235.488 510.086 235.488C506.389 235.488 503.042 234.825 500.044 233.498C497.047 232.172 494.791 230.355 493.277 228.047C491.763 225.738 491.005 223.081 491.005 220.073H502.034C502.034 222.517 502.666 224.318 503.93 225.477C505.193 226.637 507.245 227.216 510.086 227.216C511.903 227.216 513.339 226.825 514.394 226.041C515.449 225.258 515.976 224.156 515.976 222.736Z" fill="white"/>
</g>
<path d="M1205.32 167.439H1209.43L1215.48 184.738L1221.53 167.439H1225.65L1217.13 191H1213.83L1205.32 167.439ZM1203.1 167.439H1207.2L1207.94 184.301V191H1203.1V167.439ZM1223.77 167.439H1227.88V191H1223.02V184.301L1223.77 167.439ZM1239.9 191.324C1238.54 191.324 1237.32 191.108 1236.24 190.676C1235.17 190.234 1234.25 189.625 1233.49 188.848C1232.75 188.071 1232.18 187.17 1231.78 186.145C1231.38 185.11 1231.18 184.009 1231.18 182.844V182.197C1231.18 180.87 1231.37 179.656 1231.75 178.556C1232.12 177.456 1232.66 176.501 1233.36 175.692C1234.08 174.883 1234.94 174.262 1235.95 173.831C1236.97 173.389 1238.11 173.167 1239.38 173.167C1240.62 173.167 1241.72 173.372 1242.68 173.782C1243.64 174.192 1244.45 174.775 1245.1 175.53C1245.75 176.285 1246.25 177.191 1246.58 178.249C1246.92 179.295 1247.09 180.46 1247.09 181.744V183.686H1233.17V180.579H1242.51V180.223C1242.51 179.576 1242.39 178.998 1242.15 178.491C1241.92 177.974 1241.58 177.564 1241.12 177.262C1240.65 176.959 1240.06 176.808 1239.34 176.808C1238.72 176.808 1238.19 176.943 1237.75 177.213C1237.31 177.483 1236.95 177.86 1236.67 178.346C1236.4 178.831 1236.19 179.403 1236.05 180.061C1235.92 180.708 1235.86 181.42 1235.86 182.197V182.844C1235.86 183.546 1235.95 184.193 1236.15 184.786C1236.35 185.379 1236.64 185.892 1237 186.323C1237.38 186.755 1237.84 187.089 1238.36 187.327C1238.9 187.564 1239.51 187.683 1240.19 187.683C1241.03 187.683 1241.82 187.521 1242.54 187.197C1243.27 186.863 1243.9 186.361 1244.43 185.692L1246.7 188.152C1246.33 188.681 1245.83 189.188 1245.19 189.673C1244.57 190.159 1243.81 190.558 1242.93 190.871C1242.04 191.173 1241.03 191.324 1239.9 191.324ZM1260.1 186.809V173.491H1264.76V191H1260.37L1260.1 186.809ZM1260.61 183.216L1261.99 183.184C1261.99 184.349 1261.85 185.433 1261.59 186.437C1261.32 187.429 1260.91 188.292 1260.37 189.026C1259.83 189.749 1259.15 190.315 1258.33 190.725C1257.51 191.124 1256.55 191.324 1255.44 191.324C1254.58 191.324 1253.8 191.205 1253.07 190.968C1252.36 190.72 1251.75 190.337 1251.23 189.819C1250.72 189.29 1250.32 188.616 1250.03 187.796C1249.75 186.965 1249.61 185.967 1249.61 184.802V173.491H1254.27V184.835C1254.27 185.353 1254.33 185.789 1254.45 186.145C1254.58 186.501 1254.76 186.793 1254.98 187.019C1255.21 187.246 1255.47 187.408 1255.78 187.505C1256.09 187.602 1256.43 187.65 1256.81 187.65C1257.77 187.65 1258.53 187.456 1259.08 187.068C1259.64 186.679 1260.03 186.151 1260.26 185.482C1260.5 184.802 1260.61 184.047 1260.61 183.216ZM1283.8 187.683C1284.37 187.683 1284.88 187.575 1285.32 187.359C1285.77 187.133 1286.11 186.82 1286.36 186.421C1286.62 186.011 1286.75 185.531 1286.76 184.98H1291.15C1291.14 186.21 1290.81 187.305 1290.16 188.265C1289.52 189.215 1288.65 189.964 1287.56 190.515C1286.47 191.054 1285.25 191.324 1283.9 191.324C1282.54 191.324 1281.35 191.097 1280.34 190.644C1279.34 190.191 1278.5 189.565 1277.83 188.767C1277.16 187.958 1276.66 187.019 1276.33 185.951C1275.99 184.872 1275.83 183.718 1275.83 182.488V182.019C1275.83 180.778 1275.99 179.624 1276.33 178.556C1276.66 177.477 1277.16 176.539 1277.83 175.74C1278.5 174.931 1279.34 174.3 1280.34 173.847C1281.34 173.394 1282.52 173.167 1283.87 173.167C1285.3 173.167 1286.56 173.443 1287.64 173.993C1288.73 174.543 1289.58 175.33 1290.19 176.355C1290.82 177.369 1291.14 178.572 1291.15 179.964H1286.76C1286.75 179.381 1286.63 178.853 1286.39 178.378C1286.17 177.903 1285.83 177.526 1285.39 177.245C1284.96 176.954 1284.42 176.808 1283.79 176.808C1283.11 176.808 1282.55 176.954 1282.12 177.245C1281.69 177.526 1281.35 177.914 1281.12 178.41C1280.88 178.896 1280.71 179.451 1280.62 180.077C1280.53 180.692 1280.49 181.339 1280.49 182.019V182.488C1280.49 183.168 1280.53 183.821 1280.62 184.446C1280.7 185.072 1280.86 185.628 1281.1 186.113C1281.35 186.599 1281.69 186.981 1282.12 187.262C1282.55 187.542 1283.11 187.683 1283.8 187.683ZM1303.3 187.052V179.252C1303.3 178.691 1303.21 178.211 1303.03 177.812C1302.84 177.402 1302.56 177.084 1302.17 176.857C1301.79 176.63 1301.3 176.517 1300.7 176.517C1300.18 176.517 1299.73 176.609 1299.35 176.792C1298.98 176.965 1298.69 177.218 1298.48 177.553C1298.28 177.876 1298.17 178.259 1298.17 178.702H1293.51C1293.51 177.957 1293.68 177.251 1294.03 176.582C1294.38 175.913 1294.88 175.325 1295.53 174.818C1296.19 174.3 1296.98 173.896 1297.88 173.604C1298.8 173.313 1299.82 173.167 1300.96 173.167C1302.32 173.167 1303.52 173.394 1304.58 173.847C1305.64 174.3 1306.47 174.98 1307.07 175.886C1307.69 176.792 1308 177.925 1308 179.284V186.777C1308 187.737 1308.05 188.524 1308.17 189.139C1308.29 189.743 1308.46 190.272 1308.69 190.725V191H1303.98C1303.76 190.525 1303.58 189.932 1303.46 189.22C1303.36 188.497 1303.3 187.774 1303.3 187.052ZM1303.92 180.336L1303.95 182.974H1301.34C1300.73 182.974 1300.2 183.044 1299.74 183.184C1299.29 183.324 1298.92 183.524 1298.63 183.783C1298.33 184.031 1298.12 184.322 1297.98 184.657C1297.85 184.991 1297.78 185.358 1297.78 185.757C1297.78 186.156 1297.88 186.518 1298.06 186.841C1298.24 187.154 1298.51 187.402 1298.85 187.586C1299.2 187.758 1299.6 187.845 1300.07 187.845C1300.77 187.845 1301.38 187.704 1301.89 187.424C1302.41 187.143 1302.81 186.798 1303.09 186.388C1303.38 185.978 1303.53 185.59 1303.54 185.223L1304.77 187.197C1304.6 187.64 1304.36 188.098 1304.06 188.573C1303.77 189.047 1303.4 189.495 1302.95 189.916C1302.49 190.326 1301.95 190.666 1301.31 190.935C1300.68 191.194 1299.92 191.324 1299.05 191.324C1297.94 191.324 1296.93 191.102 1296.02 190.66C1295.12 190.207 1294.41 189.587 1293.88 188.799C1293.37 188.001 1293.11 187.095 1293.11 186.081C1293.11 185.164 1293.28 184.349 1293.63 183.637C1293.97 182.925 1294.48 182.326 1295.15 181.841C1295.83 181.345 1296.67 180.973 1297.69 180.724C1298.7 180.466 1299.88 180.336 1301.21 180.336H1303.92ZM1316.25 177.31V191H1311.59V173.491H1315.97L1316.25 177.31ZM1321.52 173.378L1321.44 177.698C1321.22 177.666 1320.94 177.639 1320.62 177.618C1320.3 177.585 1320.02 177.569 1319.76 177.569C1319.1 177.569 1318.53 177.655 1318.04 177.828C1317.57 177.99 1317.17 178.232 1316.85 178.556C1316.53 178.88 1316.3 179.273 1316.13 179.737C1315.98 180.201 1315.9 180.73 1315.88 181.323L1314.94 181.032C1314.94 179.899 1315.05 178.858 1315.28 177.909C1315.5 176.949 1315.83 176.113 1316.26 175.401C1316.71 174.689 1317.25 174.138 1317.88 173.75C1318.52 173.362 1319.25 173.167 1320.07 173.167C1320.33 173.167 1320.59 173.189 1320.86 173.232C1321.13 173.265 1321.35 173.313 1321.52 173.378ZM1328.38 177.31V191H1323.72V173.491H1328.11L1328.38 177.31ZM1333.66 173.378L1333.58 177.698C1333.35 177.666 1333.08 177.639 1332.75 177.618C1332.44 177.585 1332.15 177.569 1331.9 177.569C1331.24 177.569 1330.67 177.655 1330.18 177.828C1329.71 177.99 1329.31 178.232 1328.98 178.556C1328.67 178.88 1328.43 179.273 1328.27 179.737C1328.12 180.201 1328.03 180.73 1328.01 181.323L1327.07 181.032C1327.07 179.899 1327.19 178.858 1327.41 177.909C1327.64 176.949 1327.97 176.113 1328.4 175.401C1328.84 174.689 1329.38 174.138 1330.02 173.75C1330.66 173.362 1331.38 173.167 1332.2 173.167C1332.46 173.167 1332.73 173.189 1333 173.232C1333.27 173.265 1333.49 173.313 1333.66 173.378ZM1340.78 173.491V191H1336.1V173.491H1340.78ZM1335.81 168.928C1335.81 168.248 1336.05 167.687 1336.52 167.245C1337 166.803 1337.63 166.581 1338.43 166.581C1339.22 166.581 1339.85 166.803 1340.33 167.245C1340.81 167.687 1341.05 168.248 1341.05 168.928C1341.05 169.607 1340.81 170.168 1340.33 170.611C1339.85 171.053 1339.22 171.274 1338.43 171.274C1337.63 171.274 1337 171.053 1336.52 170.611C1336.05 170.168 1335.81 169.607 1335.81 168.928ZM1349.19 177.229V191H1344.53V173.491H1348.9L1349.19 177.229ZM1348.51 181.631H1347.25C1347.25 180.336 1347.42 179.171 1347.75 178.135C1348.09 177.089 1348.56 176.199 1349.16 175.465C1349.77 174.721 1350.48 174.155 1351.31 173.766C1352.16 173.367 1353.09 173.167 1354.13 173.167C1354.95 173.167 1355.7 173.286 1356.38 173.523C1357.06 173.761 1357.64 174.138 1358.13 174.656C1358.62 175.174 1359 175.859 1359.26 176.711C1359.53 177.564 1359.66 178.605 1359.66 179.834V191H1354.97V179.818C1354.97 179.042 1354.86 178.437 1354.65 178.006C1354.43 177.574 1354.11 177.272 1353.69 177.1C1353.28 176.916 1352.78 176.825 1352.17 176.825C1351.55 176.825 1351 176.949 1350.54 177.197C1350.08 177.445 1349.71 177.79 1349.4 178.232C1349.11 178.664 1348.89 179.171 1348.74 179.754C1348.59 180.336 1348.51 180.962 1348.51 181.631ZM1367.75 166.145V191H1363.09V166.145H1367.75ZM1367.09 181.631H1365.81C1365.82 180.412 1365.99 179.29 1366.3 178.265C1366.61 177.229 1367.06 176.334 1367.64 175.579C1368.22 174.813 1368.92 174.219 1369.73 173.799C1370.55 173.378 1371.46 173.167 1372.45 173.167C1373.31 173.167 1374.09 173.292 1374.79 173.54C1375.51 173.777 1376.12 174.165 1376.62 174.705C1377.14 175.233 1377.54 175.929 1377.82 176.792C1378.1 177.655 1378.24 178.702 1378.24 179.932V191H1373.55V179.899C1373.55 179.122 1373.43 178.513 1373.21 178.071C1372.99 177.618 1372.67 177.299 1372.25 177.116C1371.84 176.922 1371.34 176.825 1370.73 176.825C1370.06 176.825 1369.49 176.949 1369.02 177.197C1368.55 177.445 1368.18 177.79 1367.9 178.232C1367.62 178.664 1367.42 179.171 1367.29 179.754C1367.16 180.336 1367.09 180.962 1367.09 181.631ZM1381.04 182.424V182.084C1381.04 180.8 1381.22 179.619 1381.59 178.54C1381.96 177.45 1382.49 176.506 1383.19 175.708C1383.89 174.91 1384.76 174.289 1385.78 173.847C1386.81 173.394 1387.98 173.167 1389.31 173.167C1390.64 173.167 1391.82 173.394 1392.85 173.847C1393.89 174.289 1394.76 174.91 1395.46 175.708C1396.17 176.506 1396.71 177.45 1397.08 178.54C1397.44 179.619 1397.63 180.8 1397.63 182.084V182.424C1397.63 183.697 1397.44 184.878 1397.08 185.967C1396.71 187.046 1396.17 187.99 1395.46 188.799C1394.76 189.598 1393.89 190.218 1392.87 190.66C1391.84 191.102 1390.67 191.324 1389.34 191.324C1388.01 191.324 1386.83 191.102 1385.8 190.66C1384.77 190.218 1383.9 189.598 1383.19 188.799C1382.49 187.99 1381.96 187.046 1381.59 185.967C1381.22 184.878 1381.04 183.697 1381.04 182.424ZM1385.7 182.084V182.424C1385.7 183.157 1385.77 183.842 1385.89 184.479C1386.02 185.115 1386.23 185.676 1386.51 186.162C1386.8 186.636 1387.18 187.008 1387.64 187.278C1388.11 187.548 1388.67 187.683 1389.34 187.683C1389.99 187.683 1390.54 187.548 1391.01 187.278C1391.47 187.008 1391.84 186.636 1392.12 186.162C1392.41 185.676 1392.61 185.115 1392.74 184.479C1392.88 183.842 1392.95 183.157 1392.95 182.424V182.084C1392.95 181.372 1392.88 180.703 1392.74 180.077C1392.61 179.441 1392.4 178.88 1392.11 178.394C1391.83 177.898 1391.46 177.51 1390.99 177.229C1390.53 176.949 1389.97 176.808 1389.31 176.808C1388.65 176.808 1388.09 176.949 1387.63 177.229C1387.17 177.51 1386.8 177.898 1386.51 178.394C1386.23 178.88 1386.02 179.441 1385.89 180.077C1385.77 180.703 1385.7 181.372 1385.7 182.084Z" fill="white"/>
<path d="M1329.17 227.181V228.609H1316.54V227.319L1323.16 219.816C1323.98 218.882 1324.63 218.063 1325.12 217.361C1325.61 216.649 1325.97 216.001 1326.18 215.419C1326.4 214.827 1326.51 214.254 1326.51 213.699C1326.51 212.885 1326.35 212.169 1326.03 211.549C1325.71 210.929 1325.24 210.444 1324.61 210.093C1323.98 209.741 1323.21 209.566 1322.28 209.566C1321.36 209.566 1320.55 209.764 1319.87 210.162C1319.18 210.56 1318.66 211.114 1318.29 211.826C1317.93 212.529 1317.75 213.329 1317.75 214.226H1316.1C1316.1 213.116 1316.34 212.099 1316.83 211.174C1317.33 210.25 1318.04 209.515 1318.97 208.969C1319.89 208.414 1321 208.137 1322.28 208.137C1323.5 208.137 1324.55 208.354 1325.43 208.789C1326.31 209.214 1326.98 209.829 1327.45 210.634C1327.94 211.438 1328.18 212.409 1328.18 213.546C1328.18 214.157 1328.07 214.771 1327.84 215.391C1327.63 216.011 1327.33 216.63 1326.96 217.25C1326.59 217.86 1326.16 218.466 1325.68 219.067C1325.21 219.668 1324.71 220.259 1324.2 220.842L1318.56 227.181H1329.17ZM1341.34 213.602V228.609H1339.69V213.602H1341.34ZM1339.4 209.26C1339.4 208.946 1339.49 208.682 1339.69 208.47C1339.89 208.248 1340.17 208.137 1340.52 208.137C1340.87 208.137 1341.15 208.248 1341.35 208.47C1341.57 208.682 1341.67 208.946 1341.67 209.26C1341.67 209.566 1341.57 209.829 1341.35 210.051C1341.15 210.264 1340.87 210.37 1340.52 210.37C1340.17 210.37 1339.89 210.264 1339.69 210.051C1339.49 209.829 1339.4 209.566 1339.4 209.26ZM1351.55 213.602V214.961H1344.03V213.602H1351.55ZM1346.79 209.746H1348.44V224.962C1348.44 225.655 1348.53 226.177 1348.72 226.529C1348.9 226.88 1349.14 227.116 1349.44 227.236C1349.74 227.356 1350.05 227.417 1350.4 227.417C1350.65 227.417 1350.89 227.403 1351.12 227.375C1351.35 227.338 1351.56 227.301 1351.74 227.264L1351.81 228.665C1351.61 228.73 1351.34 228.78 1351.02 228.817C1350.7 228.864 1350.37 228.887 1350.05 228.887C1349.41 228.887 1348.85 228.771 1348.36 228.54C1347.87 228.3 1347.48 227.893 1347.21 227.319C1346.93 226.737 1346.79 225.946 1346.79 224.948V209.746ZM1360.83 228.887C1359.85 228.887 1358.95 228.706 1358.12 228.346C1357.31 227.985 1356.6 227.477 1355.99 226.82C1355.39 226.164 1354.92 225.387 1354.59 224.49C1354.26 223.584 1354.1 222.594 1354.1 221.522V220.925C1354.1 219.769 1354.27 218.725 1354.61 217.791C1354.96 216.857 1355.43 216.057 1356.03 215.391C1356.63 214.725 1357.31 214.217 1358.08 213.865C1358.86 213.505 1359.67 213.324 1360.52 213.324C1361.47 213.324 1362.32 213.495 1363.06 213.838C1363.8 214.17 1364.42 214.647 1364.92 215.266C1365.43 215.876 1365.81 216.602 1366.07 217.444C1366.33 218.276 1366.46 219.196 1366.46 220.204V221.217H1355.1V219.802H1364.81V219.608C1364.79 218.766 1364.62 217.98 1364.29 217.25C1363.98 216.51 1363.51 215.909 1362.88 215.447C1362.25 214.984 1361.46 214.753 1360.52 214.753C1359.82 214.753 1359.17 214.901 1358.58 215.197C1358 215.493 1357.49 215.918 1357.07 216.473C1356.65 217.018 1356.33 217.67 1356.1 218.429C1355.88 219.178 1355.76 220.01 1355.76 220.925V221.522C1355.76 222.354 1355.88 223.131 1356.12 223.852C1356.37 224.564 1356.73 225.193 1357.18 225.738C1357.64 226.284 1358.19 226.709 1358.82 227.014C1359.44 227.319 1360.14 227.472 1360.9 227.472C1361.78 227.472 1362.57 227.31 1363.25 226.987C1363.94 226.654 1364.55 226.131 1365.1 225.419L1366.14 226.224C1365.82 226.705 1365.41 227.148 1364.92 227.555C1364.44 227.962 1363.86 228.286 1363.18 228.526C1362.51 228.767 1361.72 228.887 1360.83 228.887ZM1371.38 216.806V228.609H1369.73V213.602H1371.31L1371.38 216.806ZM1371.01 220.176L1370.27 219.76C1370.33 218.872 1370.51 218.04 1370.81 217.264C1371.12 216.487 1371.53 215.803 1372.05 215.211C1372.57 214.619 1373.19 214.157 1373.89 213.824C1374.6 213.491 1375.39 213.324 1376.25 213.324C1377 213.324 1377.67 213.426 1378.26 213.63C1378.85 213.833 1379.36 214.157 1379.77 214.6C1380.19 215.044 1380.5 215.613 1380.72 216.306C1380.94 217 1381.05 217.846 1381.05 218.845V228.609H1379.39V218.831C1379.39 217.795 1379.24 216.986 1378.96 216.404C1378.67 215.812 1378.26 215.391 1377.73 215.141C1377.21 214.892 1376.58 214.767 1375.86 214.767C1375.07 214.767 1374.37 214.943 1373.77 215.294C1373.18 215.636 1372.68 216.085 1372.27 216.639C1371.87 217.185 1371.57 217.772 1371.35 218.401C1371.14 219.02 1371.03 219.612 1371.01 220.176ZM1394.34 224.781C1394.34 224.374 1394.24 223.972 1394.03 223.574C1393.83 223.177 1393.44 222.812 1392.85 222.479C1392.28 222.146 1391.43 221.864 1390.31 221.633C1389.48 221.448 1388.74 221.24 1388.08 221.008C1387.43 220.777 1386.89 220.5 1386.45 220.176C1386 219.853 1385.66 219.464 1385.43 219.011C1385.2 218.558 1385.09 218.022 1385.09 217.402C1385.09 216.847 1385.21 216.325 1385.45 215.835C1385.7 215.336 1386.05 214.901 1386.5 214.531C1386.96 214.152 1387.52 213.856 1388.17 213.643C1388.82 213.431 1389.56 213.324 1390.37 213.324C1391.53 213.324 1392.52 213.523 1393.34 213.921C1394.17 214.309 1394.8 214.841 1395.24 215.516C1395.68 216.191 1395.9 216.954 1395.9 217.804H1394.25C1394.25 217.287 1394.1 216.797 1393.8 216.334C1393.5 215.872 1393.06 215.493 1392.48 215.197C1391.91 214.901 1391.2 214.753 1390.37 214.753C1389.51 214.753 1388.81 214.882 1388.28 215.141C1387.74 215.4 1387.35 215.729 1387.1 216.126C1386.86 216.524 1386.74 216.935 1386.74 217.361C1386.74 217.693 1386.79 217.999 1386.89 218.276C1387 218.544 1387.19 218.794 1387.47 219.025C1387.76 219.256 1388.17 219.474 1388.69 219.677C1389.22 219.88 1389.9 220.079 1390.74 220.273C1391.96 220.542 1392.95 220.87 1393.71 221.258C1394.49 221.637 1395.06 222.109 1395.43 222.673C1395.8 223.228 1395.99 223.903 1395.99 224.698C1395.99 225.318 1395.86 225.886 1395.6 226.404C1395.34 226.913 1394.97 227.352 1394.48 227.722C1394 228.092 1393.41 228.378 1392.73 228.582C1392.05 228.785 1391.3 228.887 1390.45 228.887C1389.19 228.887 1388.11 228.679 1387.24 228.263C1386.37 227.837 1385.71 227.282 1385.25 226.598C1384.81 225.905 1384.59 225.17 1384.59 224.393H1386.24C1386.29 225.17 1386.54 225.784 1386.97 226.238C1387.41 226.681 1387.94 226.996 1388.57 227.181C1389.21 227.366 1389.83 227.458 1390.45 227.458C1391.3 227.458 1392.02 227.333 1392.59 227.084C1393.16 226.834 1393.6 226.506 1393.89 226.099C1394.19 225.692 1394.34 225.253 1394.34 224.781Z" fill="white"/>
<path d="M1444.62 189.99H1427.12C1426.09 189.99 1425.23 190.357 1424.55 191.092C1423.86 191.826 1423.52 192.646 1423.52 193.55V194.567L1432.78 228.128C1433.24 229.597 1434.13 230.84 1435.44 231.857C1436.76 232.874 1438.27 233.383 1439.99 233.383H1487.53C1489.24 233.383 1490.73 232.874 1491.99 231.857C1493.25 230.84 1494.1 229.597 1494.56 228.128L1503.83 194.567C1503.94 194.341 1504 194.002 1504 193.55C1504 192.646 1503.63 191.826 1502.88 191.092C1502.14 190.357 1501.31 189.99 1500.4 189.99H1482.72L1466.76 166.26C1466.07 165.243 1465.07 164.734 1463.76 164.734C1462.44 164.734 1461.44 165.243 1460.75 166.26L1444.62 189.99ZM1474.65 189.99H1452.69L1463.67 174.057L1474.65 189.99ZM1463.76 218.975C1461.76 218.975 1460.04 218.269 1458.61 216.856C1457.18 215.444 1456.46 213.721 1456.46 211.687C1456.46 209.652 1457.18 207.929 1458.61 206.517C1460.04 205.104 1461.76 204.398 1463.76 204.398C1465.76 204.398 1467.48 205.104 1468.91 206.517C1470.34 207.929 1471.05 209.652 1471.05 211.687C1471.05 213.721 1470.34 215.444 1468.91 216.856C1467.48 218.269 1465.76 218.975 1463.76 218.975Z" fill="#8257E6"/>
<defs>
<clipPath id="clip0_616_3">
<rect width="590.333" height="77" fill="white" transform="translate(80 160)"/>
</clipPath>
</defs>
</svg>
